<svg xmlns="http://www.w3.org/2000/svg" width="20" height="20" viewBox="0 0 18 20">
 <style>
        .fill-lakehouse {
            fill: #00338d;
        }
    </style>
    <path class="fill-lakehouse" d="M11.825,18.25A2.44,2.44,0,0,1,10.1,14.1a2.475,2.475,0,0,1,3.45,0,2.425,2.425,0,0,1-1.725,4.15ZM7.5,24A1.538,1.538,0,0,1,6,22.5V7A1.538,1.538,0,0,1,7.5,5.5H9.125V4H10.75V5.5h8.5V4h1.625V5.5H22.5A1.538,1.538,0,0,1,24,7V22.5A1.538,1.538,0,0,1,22.5,24Zm0-1.5h15V11.75H7.5Zm0-12.25h15V7H7.5Zm0,0v0Z" transform="translate(-6 -4)" />
</svg>
