<?xml version="1.0" encoding="utf-8"?>
<svg xmlns="http://www.w3.org/2000/svg" viewBox="0 0 28 19.67">
    <style type="text/css">
        .fill-show-session-learners {
            fill: #00338d;
        }
    </style>
    <path class="fill-show-session-learners" d="M1.9,28.62V25.642a3.689,3.689,0,0,1,.57-2.011,3.47,3.47,0,0,1,1.584-1.346,25.112,25.112,0,0,1,4.165-1.457,16.342,16.342,0,0,1,3.817-.443,16.142,16.142,0,0,1,3.8.443,25.327,25.327,0,0,1,4.149,1.457,3.565,3.565,0,0,1,1.6,1.346,3.616,3.616,0,0,1,.586,2.011V28.62Zm22.172,0V25.642a5.127,5.127,0,0,0-1.014-3.278A7.419,7.419,0,0,0,20.4,20.289a31.412,31.412,0,0,1,4.118.744,14.514,14.514,0,0,1,3.136,1.124A4.9,4.9,0,0,1,29.3,23.647a3.473,3.473,0,0,1,.6,2V28.62ZM12.036,18.452A4.557,4.557,0,0,1,7.285,13.7,4.557,4.557,0,0,1,12.036,8.95,4.557,4.557,0,0,1,16.787,13.7a4.557,4.557,0,0,1-4.751,4.751Zm11.4-4.751a4.557,4.557,0,0,1-4.751,4.751,7.083,7.083,0,0,1-.776-.048,3.35,3.35,0,0,1-.776-.174,5.2,5.2,0,0,0,1.156-1.948,7.933,7.933,0,0,0,.4-2.581,7.373,7.373,0,0,0-.4-2.518,6.734,6.734,0,0,0-1.156-2.011,6.684,6.684,0,0,1,.776-.158,5.338,5.338,0,0,1,.776-.063A4.557,4.557,0,0,1,23.438,13.7ZM3.8,26.719H20.271V25.642a1.811,1.811,0,0,0-.3-.982A1.656,1.656,0,0,0,19.226,24a21.387,21.387,0,0,0-3.833-1.362,15.316,15.316,0,0,0-3.357-.348,15.533,15.533,0,0,0-3.373.348A21.2,21.2,0,0,0,4.814,24a1.571,1.571,0,0,0-.729.665,1.884,1.884,0,0,0-.285.982Zm8.235-10.167A2.763,2.763,0,0,0,14.886,13.7a2.763,2.763,0,0,0-2.851-2.851A2.763,2.763,0,0,0,9.185,13.7a2.763,2.763,0,0,0,2.851,2.851ZM12.036,26.719ZM12.036,13.7Z" transform="translate(-1.9 -8.95)"/>
</svg>