<?xml version="1.0" encoding="utf-8"?>
<svg xmlns="http://www.w3.org/2000/svg" viewBox="0 0 28 28">
    <style type="text/css">
        .fill-preview {
            fill: #00338d;
        }
    </style>
    <path class="fill-preview" d="M8.333,34A2.324,2.324,0,0,1,6,31.667V8.333A2.324,2.324,0,0,1,8.333,6H31.667A2.324,2.324,0,0,1,34,8.333V31.667A2.324,2.324,0,0,1,31.667,34Zm0-2.333H31.667V11.444H8.333ZM20,27.583a9.633,9.633,0,0,1-5.561-1.672,9.757,9.757,0,0,1-3.578-4.356A9.757,9.757,0,0,1,14.439,17.2,9.633,9.633,0,0,1,20,15.528,9.633,9.633,0,0,1,25.561,17.2a9.757,9.757,0,0,1,3.578,4.356,9.757,9.757,0,0,1-3.578,4.356A9.633,9.633,0,0,1,20,27.583Zm0-1.944a7.96,7.96,0,0,0,4.083-1.089A7.71,7.71,0,0,0,27,21.556a7.71,7.71,0,0,0-2.917-2.994,8.2,8.2,0,0,0-8.167,0A7.71,7.71,0,0,0,13,21.556a7.71,7.71,0,0,0,2.917,2.994A7.96,7.96,0,0,0,20,25.639ZM20,23.5a1.926,1.926,0,1,1,1.381-.564A1.878,1.878,0,0,1,20,23.5Z" transform="translate(-6 -6)"/>
</svg>