<svg xmlns="http://www.w3.org/2000/svg" viewBox="0 0 42 42">
    <style type="text/css">
        .fill-calendar {
            fill: #00338d;
        }
    </style>
    <path class="fill-calendar"
        d="M9,44a2.878,2.878,0,0,1-2.1-.9A2.878,2.878,0,0,1,6,41V10a2.878,2.878,0,0,1,.9-2.1A2.878,2.878,0,0,1,9,7h3.25V4H15.5V7h17V4h3.25V7H39a2.878,2.878,0,0,1,2.1.9A2.878,2.878,0,0,1,42,10V25.05H39V19.5H9V41H24.95v3ZM44.45,33.05,40.9,29.5l1.45-1.45a1.578,1.578,0,0,1,2.1,0L45.9,29.5a1.578,1.578,0,0,1,0,2.1ZM27.95,46V42.45l10.8-10.8L42.3,35.2,31.5,46ZM9,16.5H39V10H9Zm0,0v0Z"
        transform="translate(-6 -4)"  />
</svg>