<?xml version="1.0" encoding="utf-8"?>
<svg xmlns="http://www.w3.org/2000/svg" viewBox="0 0 28 31.111">
    <style type="text/css">
        .fill-delete-class {
            fill: #00338d;
        }
    </style>
    <path class="fill-delete-class" d="M16.15,29.744l-1.672-1.672,3.889-3.85-3.889-3.85L16.15,18.7,20,22.589,23.85,18.7l1.672,1.672-3.889,3.85,3.889,3.85L23.85,29.744,20,25.856ZM8.333,35.111a2.239,2.239,0,0,1-1.633-.7A2.239,2.239,0,0,1,6,32.778V8.667a2.239,2.239,0,0,1,.7-1.633,2.239,2.239,0,0,1,1.633-.7h2.528V4h2.528V6.333H26.611V4h2.528V6.333h2.528a2.239,2.239,0,0,1,1.633.7A2.239,2.239,0,0,1,34,8.667V32.778a2.392,2.392,0,0,1-2.333,2.333Zm0-2.333H31.667V16.056H8.333Zm0-19.056H31.667V8.667H8.333Zm0,0v0Z" transform="translate(-6 -4)"/>
</svg>