<?xml version="1.0" encoding="utf-8"?>
<svg xmlns="http://www.w3.org/2000/svg" viewBox="0 0 28 28">
    <style type="text/css">
        .fill-acceptance-report {
            fill: #00338d;
        }
    </style>
    <path class="fill-acceptance-report" d="M12.4,20.8H23.6v-.665a2.493,2.493,0,0,0-1.487-2.275A8.721,8.721,0,0,0,18,17.055a8.721,8.721,0,0,0-4.113.805A2.493,2.493,0,0,0,12.4,20.135ZM18,14.745a2.569,2.569,0,0,0,2.59-2.59,2.6,2.6,0,0,0-4.427-1.838,2.62,2.62,0,0,0,0,3.675A2.5,2.5,0,0,0,18,14.745ZM4,32V6.1a2.034,2.034,0,0,1,.63-1.453A1.989,1.989,0,0,1,6.1,4H29.9a2.008,2.008,0,0,1,1.453.648A2.008,2.008,0,0,1,32,6.1V24.3a2.221,2.221,0,0,1-2.1,2.1H9.6Zm2.1-5.075L8.725,24.3H29.9V6.1H6.1ZM6.1,6.1v0Z" transform="translate(-4 -4)"/>
</svg>