<?xml version="1.0" encoding="utf-8"?>
<!-- Generator: Adobe Illustrator 23.0.3, SVG Export Plug-In . SVG Version: 6.00 Build 0)  -->
<svg version="1.1" id="Course_Waitlisted" xmlns="http://www.w3.org/2000/svg" xmlns:xlink="http://www.w3.org/1999/xlink" x="0px"
	 y="0px" viewBox="0 0 40 40" style="enable-background:new 0 0 40 40;" xml:space="preserve">
<style type="text/css">
	.st0{fill:#444444;}
</style>
<g>
	<path class="st0" d="M8.82,14.08h6.71c0.95,0,1.74-0.72,1.83-1.67l1.52-10.39C18.99,0.93,18.14,0,17.06,0H7.3
		C6.22,0,5.37,0.93,5.47,2.01l1.52,10.39C7.08,13.35,7.87,14.08,8.82,14.08z"/>
	<path class="st0" d="M20.76,11.48l-0.39,0h-0.6h-0.12c-0.26,0-0.47,0.21-0.47,0.47v4.67c-0.51-0.65-1.31-1.08-2.21-1.08H7.4
		c-0.84,0-1.59,0.37-2.11,0.96v-4.55c0-0.26-0.21-0.47-0.47-0.47H4.69h-0.6l-0.39,0c-0.57,0-1.08,0.43-1.11,0.99
		c-0.03,0.6,0.45,1.1,1.05,1.1h0.45v4.38c0,0.83,0.67,1.51,1.51,1.51h13.26c0.83,0,1.51-0.67,1.51-1.51v-4.38h0.45
		c0.6,0,1.08-0.5,1.05-1.1C21.83,11.9,21.32,11.48,20.76,11.48z"/>
	<path class="st0" d="M16.55,23.43h-3.58c-0.1,0-0.19-0.09-0.19-0.19v-2.78c0-0.1-0.09-0.19-0.19-0.19h-0.82
		c-0.1,0-0.19,0.09-0.19,0.19v2.78c0,0.1-0.09,0.19-0.19,0.19H7.81c-0.44,0-0.79,0.35-0.79,0.79v1.49c0,0.1,0.09,0.19,0.19,0.19
		h0.82c0.1,0,0.19-0.09,0.19-0.19v-0.89c0-0.1,0.09-0.19,0.19-0.19h7.54c0.1,0,0.19,0.09,0.19,0.19v0.89c0,0.1,0.09,0.19,0.19,0.19
		h0.82c0.1,0,0.19-0.09,0.19-0.19v-1.49C17.34,23.78,16.98,23.43,16.55,23.43z"/>
</g>
<path class="st0" d="M35.24,37.99v-5.85c0-1.07,0.01-2.15-0.01-3.22c-0.02-0.72-0.41-1.16-1.13-1.26c-0.2-0.03-0.25-0.1-0.25-0.3
	c0-1.03,0.01-2.08-0.05-3.11c-0.05-1.02-0.4-1.96-0.94-2.83c-1.09-1.72-2.63-2.84-4.63-3.3c-0.21-0.05-0.43-0.08-0.64-0.11
	c-0.21-0.02-0.42-0.03-0.64-0.09h-0.39c-0.56,0.09-1.08,0.14-1.59,0.28c-2.65,0.77-4.41,2.47-5.16,5.15
	c-0.25,0.92-0.2,1.87-0.2,2.81v1.46c-0.14,0.02-0.25,0.05-0.37,0.07c-0.61,0.13-1,0.6-1,1.22v6.55c0,1,0.01,2,0,3
	c-0.01,0.87,0.2,1.24,0.93,1.55h15.15c0.44-0.17,0.75-0.46,0.85-0.94C35.26,38.71,35.24,38.35,35.24,37.99z M28.04,34.31
	c-0.24,0.17-0.31,0.36-0.31,0.62c0.02,0.62,0.02,1.24,0.01,1.86c-0.01,0.52-0.26,0.87-0.69,1.01c-0.39,0.14-0.78,0.05-1.06-0.29
	c-0.1-0.15-0.2-0.33-0.22-0.52c-0.03-0.39-0.01-0.8-0.01-1.21h-0.02v-0.32c0.02-0.55-0.05-1-0.56-1.42
	c-0.79-0.65-0.88-1.76-0.4-2.63c0.46-0.83,1.46-1.33,2.39-1.13c0.92,0.21,1.55,0.78,1.76,1.71C29.14,32.95,28.82,33.74,28.04,34.31z
	 M31.16,27.33c0,0.24-0.08,0.32-0.31,0.32c-1.38-0.01-2.75,0-4.12,0h-4.05c-0.34,0-0.37-0.01-0.37-0.36c0-0.84-0.03-1.68,0.01-2.52
	c0.08-1.39,0.75-2.47,1.85-3.29c2.08-1.54,5.1-0.9,6.39,1.34c0.4,0.7,0.62,1.44,0.61,2.24C31.15,25.84,31.15,26.58,31.16,27.33z"/>
<g>
	<path class="st0" d="M7.82,14.08h6.71c0.95,0,1.74-0.72,1.83-1.67l1.52-10.39C17.99,0.93,17.14,0,16.06,0H6.3
		C5.22,0,4.37,0.93,4.47,2.01l1.52,10.39C6.08,13.35,6.87,14.08,7.82,14.08z"/>
	<path class="st0" d="M19.76,11.48l-0.39,0h-0.6h-0.12c-0.26,0-0.47,0.21-0.47,0.47v4.67c-0.51-0.65-1.31-1.08-2.21-1.08H6.4
		c-0.84,0-1.59,0.37-2.11,0.96v-4.55c0-0.26-0.21-0.47-0.47-0.47H3.69h-0.6l-0.39,0c-0.57,0-1.08,0.43-1.11,0.99
		c-0.03,0.6,0.45,1.1,1.05,1.1h0.45v4.38c0,0.83,0.67,1.51,1.51,1.51h13.26c0.83,0,1.51-0.67,1.51-1.51v-4.38h0.45
		c0.6,0,1.08-0.5,1.05-1.1C20.83,11.9,20.32,11.48,19.76,11.48z"/>
	<path class="st0" d="M15.55,23.43h-3.58c-0.1,0-0.19-0.09-0.19-0.19v-2.78c0-0.1-0.09-0.19-0.19-0.19h-0.82
		c-0.1,0-0.19,0.09-0.19,0.19v2.78c0,0.1-0.09,0.19-0.19,0.19H6.81c-0.44,0-0.79,0.35-0.79,0.79v1.49c0,0.1,0.09,0.19,0.19,0.19
		h0.82c0.1,0,0.19-0.09,0.19-0.19v-0.89c0-0.1,0.09-0.19,0.19-0.19h7.54c0.1,0,0.19,0.09,0.19,0.19v0.89c0,0.1,0.09,0.19,0.19,0.19
		h0.82c0.1,0,0.19-0.09,0.19-0.19v-1.49C16.34,23.78,15.98,23.43,15.55,23.43z"/>
</g>
<g>
	<path class="st0" d="M25.82,14.08h6.71c0.95,0,1.74-0.72,1.83-1.67l1.52-10.39C35.99,0.93,35.14,0,34.06,0H24.3
		c-1.08,0-1.93,0.93-1.83,2.01l1.52,10.39C24.08,13.35,24.87,14.08,25.82,14.08z"/>
	<path class="st0" d="M37.76,11.48h-0.39h-0.6h-0.12c-0.26,0-0.47,0.21-0.47,0.47v4.67c-0.51-0.65-1.31-1.08-2.21-1.08H24.4
		c-0.84,0-1.59,0.37-2.11,0.96v-4.55c0-0.26-0.21-0.47-0.47-0.47h-0.12h-0.6H20.7c-0.57,0-1.08,0.43-1.11,0.99
		c-0.03,0.6,0.45,1.1,1.05,1.1h0.45v3.76c0.71-0.41,1.48-0.75,2.34-0.99c0.46-0.13,0.9-0.19,1.36-0.26l1.4-0.09l0.24,0.06
		c0.07,0.01,0.14,0.02,0.2,0.02l0.16,0.02c0.35,0.05,0.61,0.09,0.85,0.15c2.12,0.49,3.85,1.57,5.17,3.22h3.04
		c0.83,0,1.51-0.67,1.51-1.51v-4.38h0.45c0.6,0,1.08-0.5,1.05-1.1C38.83,11.9,38.32,11.48,37.76,11.48z"/>
</g>
<path class="st0" d="M34.24,37.99v-5.85c0-1.07,0.01-2.15-0.01-3.22c-0.02-0.72-0.41-1.16-1.13-1.26c-0.2-0.03-0.25-0.1-0.25-0.3
	c0-1.03,0.01-2.08-0.05-3.11c-0.05-1.02-0.4-1.96-0.94-2.83c-1.09-1.72-2.63-2.84-4.63-3.3c-0.21-0.05-0.43-0.08-0.64-0.11
	c-0.21-0.02-0.42-0.03-0.64-0.09h-0.39c-0.56,0.09-1.08,0.14-1.59,0.28c-2.65,0.77-4.41,2.47-5.16,5.15
	c-0.25,0.92-0.2,1.87-0.2,2.81v1.46c-0.14,0.02-0.25,0.05-0.37,0.07c-0.61,0.13-1,0.6-1,1.22v6.55c0,1,0.01,2,0,3
	c-0.01,0.87,0.2,1.24,0.93,1.55h15.15c0.44-0.17,0.75-0.46,0.85-0.94C34.26,38.71,34.24,38.35,34.24,37.99z M27.04,34.31
	c-0.24,0.17-0.31,0.36-0.31,0.62c0.02,0.62,0.02,1.24,0.01,1.86c-0.01,0.52-0.26,0.87-0.69,1.01c-0.39,0.14-0.78,0.05-1.06-0.29
	c-0.1-0.15-0.2-0.33-0.22-0.52c-0.03-0.39-0.01-0.8-0.01-1.21h-0.02v-0.32c0.02-0.55-0.05-1-0.56-1.42
	c-0.79-0.65-0.88-1.76-0.4-2.63c0.46-0.83,1.46-1.33,2.39-1.13c0.92,0.21,1.55,0.78,1.76,1.71C28.14,32.95,27.82,33.74,27.04,34.31z
	 M30.16,27.33c0,0.24-0.08,0.32-0.31,0.32c-1.38-0.01-2.75,0-4.12,0h-4.05c-0.34,0-0.37-0.01-0.37-0.36c0-0.84-0.03-1.68,0.01-2.52
	c0.08-1.39,0.75-2.47,1.85-3.29c2.08-1.54,5.1-0.9,6.39,1.34c0.4,0.7,0.62,1.44,0.61,2.24C30.15,25.84,30.15,26.58,30.16,27.33z"/>
</svg>
