<?xml version="1.0" encoding="utf-8"?>
<svg xmlns="http://www.w3.org/2000/svg" viewBox="0 0 28 28">
    <style type="text/css">
        .fill-save-to-db {
            fill: #00338d;
        }
    </style>
    <path class="fill-save-to-db" d="M20,18.444A23.031,23.031,0,0,1,9.869,16.539Q6,14.633,6,12.222q0-2.45,3.869-4.336A23.237,23.237,0,0,1,20,6,23.237,23.237,0,0,1,30.131,7.886Q34,9.772,34,12.222q0,2.411-3.869,4.317A23.031,23.031,0,0,1,20,18.444Zm0,7.778a25.781,25.781,0,0,1-9.839-1.711Q6,22.8,6,20.389V16.5a3.235,3.235,0,0,0,1.458,2.625,12.433,12.433,0,0,0,3.617,1.828A25.239,25.239,0,0,0,15.664,22,32.547,32.547,0,0,0,20,22.333,32.352,32.352,0,0,0,24.356,22a26.416,26.416,0,0,0,4.569-1.031,12.1,12.1,0,0,0,3.617-1.808A3.267,3.267,0,0,0,34,16.5v3.889q0,2.411-4.161,4.122A25.781,25.781,0,0,1,20,26.222ZM20,34a25.781,25.781,0,0,1-9.839-1.711Q6,30.578,6,28.167V24.278A3.236,3.236,0,0,0,7.458,26.9a12.433,12.433,0,0,0,3.617,1.828,25.239,25.239,0,0,0,4.589,1.05A32.546,32.546,0,0,0,20,30.111a32.352,32.352,0,0,0,4.356-.331,26.416,26.416,0,0,0,4.569-1.031,12.1,12.1,0,0,0,3.617-1.808A3.267,3.267,0,0,0,34,24.278v3.889q0,2.411-4.161,4.122A25.781,25.781,0,0,1,20,34Z" transform="translate(-6 -6)"/>
</svg>