<svg xmlns="http://www.w3.org/2000/svg" width="56.98" height="42.757" viewBox="0 0 56.98 42.757">
   <style>
        .fill-advisory-learning {
            fill: #00338d;
        }
    </style>
  <g id="Group_485" data-name="Group 485" transform="translate(-18 -16.719)">
    <path class="fill-advisory-learning" d="M-1406.069-88.035v-2.5l17.818-12.252,17.645,12.209v2.5l-17.688-12.252Zm33.122,9.5a3.4,3.4,0,0,1,2.33-.872v-2.157a5.509,5.509,0,0,0-3.6,1.285,3.4,3.4,0,0,1-2.33.872,3.394,3.394,0,0,1-2.33-.872,5.514,5.514,0,0,0-3.6-1.285,5.513,5.513,0,0,0-3.6,1.285,3.4,3.4,0,0,1-2.33.872,3.4,3.4,0,0,1-2.332-.872,5.509,5.509,0,0,0-3.6-1.285,5.512,5.512,0,0,0-3.6,1.285,3.4,3.4,0,0,1-2.33.872,3.391,3.391,0,0,1-2.33-.872,5.511,5.511,0,0,0-3.6-1.285v2.157a3.389,3.389,0,0,1,2.33.872,5.509,5.509,0,0,0,3.6,1.285,5.508,5.508,0,0,0,3.6-1.285,3.4,3.4,0,0,1,2.332-.872,3.389,3.389,0,0,1,2.33.872,5.511,5.511,0,0,0,3.6,1.285,5.509,5.509,0,0,0,3.6-1.285,3.4,3.4,0,0,1,2.33-.872,3.393,3.393,0,0,1,2.33.872,5.515,5.515,0,0,0,3.6,1.285A5.514,5.514,0,0,0-1372.947-78.535Zm0,4.872a3.4,3.4,0,0,1,2.33-.872v-2.157a5.509,5.509,0,0,0-3.6,1.285,3.4,3.4,0,0,1-2.33.872,3.392,3.392,0,0,1-2.33-.872,5.515,5.515,0,0,0-3.6-1.285,5.513,5.513,0,0,0-3.6,1.285,3.4,3.4,0,0,1-2.33.872,3.4,3.4,0,0,1-2.332-.872,5.509,5.509,0,0,0-3.6-1.285,5.512,5.512,0,0,0-3.6,1.285,3.4,3.4,0,0,1-2.33.872,3.391,3.391,0,0,1-2.33-.872,5.511,5.511,0,0,0-3.6-1.285v2.157a3.387,3.387,0,0,1,2.33.872,5.509,5.509,0,0,0,3.6,1.285,5.508,5.508,0,0,0,3.6-1.285,3.4,3.4,0,0,1,2.332-.872,3.388,3.388,0,0,1,2.33.872,5.511,5.511,0,0,0,3.6,1.285,5.509,5.509,0,0,0,3.6-1.285,3.4,3.4,0,0,1,2.33-.872,3.391,3.391,0,0,1,2.33.872,5.515,5.515,0,0,0,3.6,1.285A5.514,5.514,0,0,0-1372.947-73.663Zm0,4.871a3.4,3.4,0,0,1,2.33-.872v-2.158a5.509,5.509,0,0,0-3.6,1.285,3.385,3.385,0,0,1-2.33.872,3.388,3.388,0,0,1-2.33-.872,5.515,5.515,0,0,0-3.6-1.285,5.513,5.513,0,0,0-3.6,1.285,3.4,3.4,0,0,1-2.33.872,3.4,3.4,0,0,1-2.332-.872,5.509,5.509,0,0,0-3.6-1.285,5.512,5.512,0,0,0-3.6,1.285,3.4,3.4,0,0,1-2.33.872,3.391,3.391,0,0,1-2.33-.872,5.511,5.511,0,0,0-3.6-1.285v2.157a3.387,3.387,0,0,1,2.33.872,5.509,5.509,0,0,0,3.6,1.285,5.508,5.508,0,0,0,3.6-1.285,3.4,3.4,0,0,1,2.332-.872,3.388,3.388,0,0,1,2.33.872,5.511,5.511,0,0,0,3.6,1.285,5.509,5.509,0,0,0,3.6-1.285,3.4,3.4,0,0,1,2.33-.872,3.391,3.391,0,0,1,2.33.872,5.515,5.515,0,0,0,3.6,1.285A5.514,5.514,0,0,0-1372.947-68.792Z" transform="translate(1424.2 119.509)" />
    <path class = "fill-advisory-learning" id="local_library_FILL0_wght400_GRAD0_opsz48_1_" data-name="local_library_FILL0_wght400_GRAD0_opsz48 (1)" d="M14.99,23.476a14.555,14.555,0,0,0-4.258-2.647A12.636,12.636,0,0,0,6,19.9V9.192a10.956,10.956,0,0,1,4.657,1.074,16.2,16.2,0,0,1,4.333,3,16.2,16.2,0,0,1,4.333-3A10.956,10.956,0,0,1,23.98,9.192V19.9a12.636,12.636,0,0,0-4.732.924A14.555,14.555,0,0,0,14.99,23.476Zm0-1.923a17.514,17.514,0,0,1,3.658-2.035,14.009,14.009,0,0,1,3.833-.961V10.815A10.662,10.662,0,0,0,18.9,12.176a21,21,0,0,0-3.908,3.009,23.9,23.9,0,0,0-4-3.072,9.8,9.8,0,0,0-3.5-1.3v7.741a14.009,14.009,0,0,1,3.833.961A17.514,17.514,0,0,1,14.99,21.553Zm.075-11.862a3.8,3.8,0,0,1-3.846-3.846A3.8,3.8,0,0,1,15.065,2a3.8,3.8,0,0,1,3.846,3.846,3.8,3.8,0,0,1-3.846,3.846Zm0-1.5a2.345,2.345,0,0,0,2.347-2.347A2.349,2.349,0,0,0,13.4,4.185a2.262,2.262,0,0,0-.687,1.661,2.345,2.345,0,0,0,2.347,2.347ZM15.04,5.8ZM14.99,16.184Z" transform="translate(51 36)" />
  </g>
</svg>
