<?xml version="1.0" encoding="utf-8"?>
<!-- Generator: Adobe Illustrator 23.0.3, SVG Export Plug-In . SVG Version: 6.00 Build 0)  -->
<svg version="1.1" xmlns="http://www.w3.org/2000/svg" xmlns:xlink="http://www.w3.org/1999/xlink" x="0px" y="0px"
    width="25px" height="25px" viewBox="50 45 110 110" enable-background="new 50 45 110 110" xml:space="preserve">
    <g id="SVG_4" fill="#444444">
        <path display="inline" d="M100,145c24.849,0,45-20.146,45-45.001C145,75.149,124.85,55,100,55c-24.85,0-45,20.149-45,44.999
C55,124.854,75.151,145,100,145z M76.309,98.519l4.616-4.697c0.912-0.93,2.42-0.943,3.35-0.032l9.971,9.785l21.422-21.421
c0.92-0.921,2.428-0.921,3.35,0l4.658,4.658c0.92,0.92,0.92,2.428,0,3.349l-27.691,27.688c-0.921,0.921-2.429,0.921-3.349,0
c-0.017-0.019-0.037-0.022-0.054-0.037l-16.241-15.943C75.412,100.957,75.398,99.448,76.309,98.519z" />
    </g>

</svg>