<svg xmlns="http://www.w3.org/2000/svg" viewBox="0 0 40 40">
    <style type="text/css">
        .fill-faq {
            fill: #00338d;
        }
    </style>
    <path class="fill-faq"
        d="M27.15,31a2.049,2.049,0,1,0-1.45-.6A1.975,1.975,0,0,0,27.15,31ZM25.9,24.7h2.35a6.443,6.443,0,0,1,.425-2.15A7.825,7.825,0,0,1,30.3,20.6a9.988,9.988,0,0,0,1.875-2.275A4.727,4.727,0,0,0,32.7,16.05a4.864,4.864,0,0,0-1.575-3.75A5.85,5.85,0,0,0,27,10.85a5.833,5.833,0,0,0-5.6,3.9l2.25.95a4.836,4.836,0,0,1,1.375-1.9A3.094,3.094,0,0,1,27,13.15a3.443,3.443,0,0,1,2.425.85,2.794,2.794,0,0,1,.925,2.15,3.336,3.336,0,0,1-.45,1.75,5.994,5.994,0,0,1-1.6,1.6,8.52,8.52,0,0,0-2,2.325,7.462,7.462,0,0,0-.4,2.875ZM13,38a3.076,3.076,0,0,1-3-3V7a2.878,2.878,0,0,1,.9-2.1A2.878,2.878,0,0,1,13,4H41a2.878,2.878,0,0,1,2.1.9A2.878,2.878,0,0,1,44,7V35a3.076,3.076,0,0,1-3,3Zm0-3H41V7H13ZM7,44a2.878,2.878,0,0,1-2.1-.9A2.878,2.878,0,0,1,4,41V10H7V41H38v3ZM13,7V7Z"
        transform="translate(-4 -4)" />
</svg>