<?xml version="1.0" encoding="utf-8"?>
<svg xmlns="http://www.w3.org/2000/svg" viewBox="0 0 28 26.903">
    <style type="text/css">
        .fill-upload-focus-ids {
            fill: #00338d;
        }
    </style>
    <path class="fill-upload-focus-ids" d="M18.743,16.071ZM8.124,29.487A2.178,2.178,0,0,1,6,27.363V6.124a2.038,2.038,0,0,1,.637-1.487A2.038,2.038,0,0,1,8.124,4H29.363a2.038,2.038,0,0,1,1.487.637,2.038,2.038,0,0,1,.637,1.487v9.7a4.905,4.905,0,0,0-1.027-.442q-.531-.159-1.1-.3V6.124H8.124V26.053a17.932,17.932,0,0,1,4.726-3.168,13.823,13.823,0,0,1,5.717-1.257,7.191,7.191,0,0,0-.212,1.027,8.3,8.3,0,0,0-.071,1.1,12.672,12.672,0,0,0-4.319.9,13.705,13.705,0,0,0-3.894,2.389v.319h8.885a10.9,10.9,0,0,0,.531,1.115,7.5,7.5,0,0,0,.673,1.009Zm10.69-10.655q.283,0,.549-.018a3.118,3.118,0,0,0,.549-.088,10.38,10.38,0,0,1,1.54-1.681,8.389,8.389,0,0,1,1.894-1.257,4.508,4.508,0,0,0,.265-.885,5.051,5.051,0,0,0,.088-.956,4.835,4.835,0,0,0-4.885-4.885,4.835,4.835,0,0,0-4.885,4.885,4.835,4.835,0,0,0,4.885,4.885Zm0-2.124A2.753,2.753,0,0,1,16.867,12a2.753,2.753,0,1,1,3.894,3.894,2.657,2.657,0,0,1-1.947.814ZM26.283,30.9l-.177-1.7a7.55,7.55,0,0,1-1.451-.619,4.716,4.716,0,0,1-1.2-.9l-1.487.708-1.239-1.912,1.345-1.062a6.185,6.185,0,0,1,0-2.938l-1.345-1.062,1.239-1.947,1.487.708a6.624,6.624,0,0,1,1.2-.85,6.982,6.982,0,0,1,1.451-.637l.177-1.735h2.124l.212,1.735a6.982,6.982,0,0,1,1.451.637,6.624,6.624,0,0,1,1.2.85l1.487-.708L34,21.416l-1.345,1.062a6.185,6.185,0,0,1,0,2.938L34,26.478l-1.239,1.912-1.487-.708a4.716,4.716,0,0,1-1.2.9,7.55,7.55,0,0,1-1.451.619l-.212,1.7Zm1.062-3.363a3.51,3.51,0,1,0-2.584-1.027,3.5,3.5,0,0,0,2.584,1.027Z" transform="translate(-6 -4)"/>
</svg>