<?xml version="1.0" encoding="utf-8"?>
<svg version="1.1" xmlns="http://www.w3.org/2000/svg" xmlns:xlink="http://www.w3.org/1999/xlink" x="0px" y="0px"
    viewBox="0 0 15 15">
    <style>
        .fill-seat {
            fill: #00338d;
        }
    </style>
    <path class="fill-seat"
        d="M0.719,13.341c1.132-0.515,2.655-0.873,3.898-0.873 s2.767,0.358,3.899,0.873v0.409h0.204c0.126,0,0.229-0.104,0.229-0.23v-0.044c0-0.388-0.046-0.64-0.374-0.828 C7.612,12.09,6.299,11.73,5.14,11.646V9.86H4.967V8.924c0.966-0.024,2.188-0.03,3.045-0.214c0.13-0.027,0.276-0.104,0.378-0.249 c0.145-0.207,0.295-0.81,0.054-1.076C8.229,7.147,7.746,7.218,7.477,7.296C7.09,7.409,5.941,7.655,4.618,7.655 c-1.322,0-2.472-0.246-2.859-0.359C1.491,7.218,1.006,7.147,0.792,7.385C0.55,7.651,0.701,8.254,0.846,8.461 C0.947,8.606,1.094,8.683,1.224,8.71c0.857,0.184,2.078,0.189,3.045,0.214V9.86H4.095v1.785c-1.158,0.085-2.471,0.444-3.437,1.002 c-0.327,0.188-0.374,0.44-0.374,0.828v0.044c0,0.127,0.104,0.23,0.23,0.23h0.204V13.341L0.719,13.341z M0.272,4.275 c-0.569,0.898-0.224,2.711,0.846,2.606L0.803,4.291C0.773,4.042,0.462,3.977,0.272,4.275L0.272,4.275z M8.963,4.275 c0.57,0.898,0.224,2.711-0.845,2.606l0.313-2.591C8.462,4.042,8.774,3.977,8.963,4.275L8.963,4.275z M6.602,7.015 c-1.276,0.159-2.691,0.159-3.969,0c-1.004-0.126-1.15-0.794-1.106-1.639c0.071-1.351,0.367-3.391,0.71-4.345 C2.59,0.044,3.915,0,4.618,0S6.646,0.044,7,1.031c0.342,0.954,0.638,2.994,0.709,4.345C7.752,6.221,7.607,6.889,6.602,7.015 L6.602,7.015z M1.235,13.306c0.233,0,0.423,0.189,0.423,0.423s-0.189,0.423-0.423,0.423s-0.423-0.189-0.423-0.423 S1.001,13.306,1.235,13.306L1.235,13.306z M8.001,13.306c0.233,0,0.423,0.189,0.423,0.423s-0.189,0.423-0.423,0.423 s-0.423-0.189-0.423-0.423S7.768,13.306,8.001,13.306z" />
</svg>