<?xml version="1.0" encoding="utf-8"?>
<svg xmlns="http://www.w3.org/2000/svg" viewBox="0 0 28 28">
    <style type="text/css">
        .fill-update-learners-params {
            fill: #00338d;
        }
    </style>
    <path class="fill-update-learners-params" d="M6.1,32a2.015,2.015,0,0,1-1.47-.63A2.015,2.015,0,0,1,4,29.9V13.1a2.015,2.015,0,0,1,.63-1.47A2.015,2.015,0,0,1,6.1,11h8.295V6.1a2.015,2.015,0,0,1,.63-1.47A2.015,2.015,0,0,1,16.5,4H19.54a2.015,2.015,0,0,1,1.47.63,2.015,2.015,0,0,1,.63,1.47V11H29.9A2.153,2.153,0,0,1,32,13.1V29.9A2.153,2.153,0,0,1,29.9,32Zm0-2.1H29.9V13.1H21.64a1.929,1.929,0,0,1-.647,1.54,2.4,2.4,0,0,1-1.628.56h-2.73a2.349,2.349,0,0,1-1.592-.56A1.929,1.929,0,0,1,14.4,13.1H6.1Zm3.22-3.745h8.365v-.49a2.026,2.026,0,0,0-.315-1.12,1.581,1.581,0,0,0-.805-.665,14.052,14.052,0,0,0-1.75-.507,6.412,6.412,0,0,0-1.225-.122,6.934,6.934,0,0,0-1.418.157,15.455,15.455,0,0,0-1.7.472,1.568,1.568,0,0,0-.84.665,2.026,2.026,0,0,0-.315,1.12ZM21.08,23.81h5.95V22.06H21.08Zm-7.49-1.75a1.8,1.8,0,0,0,1.347-.56,1.893,1.893,0,0,0-2.677-2.677,1.9,1.9,0,0,0,1.33,3.237Zm7.49-2.2h5.95v-1.75H21.08ZM16.5,13.1H19.54v-7H16.5ZM18,21.5Z" transform="translate(-4 -4)"/>
</svg>