<svg xmlns="http://www.w3.org/2000/svg" width="60" height="44.281" viewBox="0 0 60 44.281">
    <style>
        .fill-lakehouse {
            fill: #00338d;
        }
    </style>
    <g transform="translate(-18 -16.719)">
        <path class="fill-lakehouse"
            d="M-1406.069-88.035v-2.5l17.818-12.252,17.645,12.209v2.5l-17.688-12.252Zm33.122,9.5a3.4,3.4,0,0,1,2.33-.872v-2.157a5.509,5.509,0,0,0-3.6,1.285,3.4,3.4,0,0,1-2.33.872,3.394,3.394,0,0,1-2.33-.872,5.514,5.514,0,0,0-3.6-1.285,5.513,5.513,0,0,0-3.6,1.285,3.4,3.4,0,0,1-2.33.872,3.4,3.4,0,0,1-2.332-.872,5.509,5.509,0,0,0-3.6-1.285,5.512,5.512,0,0,0-3.6,1.285,3.4,3.4,0,0,1-2.33.872,3.391,3.391,0,0,1-2.33-.872,5.511,5.511,0,0,0-3.6-1.285v2.157a3.389,3.389,0,0,1,2.33.872,5.509,5.509,0,0,0,3.6,1.285,5.508,5.508,0,0,0,3.6-1.285,3.4,3.4,0,0,1,2.332-.872,3.389,3.389,0,0,1,2.33.872,5.511,5.511,0,0,0,3.6,1.285,5.509,5.509,0,0,0,3.6-1.285,3.4,3.4,0,0,1,2.33-.872,3.393,3.393,0,0,1,2.33.872,5.515,5.515,0,0,0,3.6,1.285A5.514,5.514,0,0,0-1372.947-78.535Zm0,4.872a3.4,3.4,0,0,1,2.33-.872v-2.157a5.509,5.509,0,0,0-3.6,1.285,3.4,3.4,0,0,1-2.33.872,3.392,3.392,0,0,1-2.33-.872,5.515,5.515,0,0,0-3.6-1.285,5.513,5.513,0,0,0-3.6,1.285,3.4,3.4,0,0,1-2.33.872,3.4,3.4,0,0,1-2.332-.872,5.509,5.509,0,0,0-3.6-1.285,5.512,5.512,0,0,0-3.6,1.285,3.4,3.4,0,0,1-2.33.872,3.391,3.391,0,0,1-2.33-.872,5.511,5.511,0,0,0-3.6-1.285v2.157a3.387,3.387,0,0,1,2.33.872,5.509,5.509,0,0,0,3.6,1.285,5.508,5.508,0,0,0,3.6-1.285,3.4,3.4,0,0,1,2.332-.872,3.388,3.388,0,0,1,2.33.872,5.511,5.511,0,0,0,3.6,1.285,5.509,5.509,0,0,0,3.6-1.285,3.4,3.4,0,0,1,2.33-.872,3.391,3.391,0,0,1,2.33.872,5.515,5.515,0,0,0,3.6,1.285A5.514,5.514,0,0,0-1372.947-73.663Zm0,4.871a3.4,3.4,0,0,1,2.33-.872v-2.158a5.509,5.509,0,0,0-3.6,1.285,3.385,3.385,0,0,1-2.33.872,3.388,3.388,0,0,1-2.33-.872,5.515,5.515,0,0,0-3.6-1.285,5.513,5.513,0,0,0-3.6,1.285,3.4,3.4,0,0,1-2.33.872,3.4,3.4,0,0,1-2.332-.872,5.509,5.509,0,0,0-3.6-1.285,5.512,5.512,0,0,0-3.6,1.285,3.4,3.4,0,0,1-2.33.872,3.391,3.391,0,0,1-2.33-.872,5.511,5.511,0,0,0-3.6-1.285v2.157a3.387,3.387,0,0,1,2.33.872,5.509,5.509,0,0,0,3.6,1.285,5.508,5.508,0,0,0,3.6-1.285,3.4,3.4,0,0,1,2.332-.872,3.388,3.388,0,0,1,2.33.872,5.511,5.511,0,0,0,3.6,1.285,5.509,5.509,0,0,0,3.6-1.285,3.4,3.4,0,0,1,2.33-.872,3.391,3.391,0,0,1,2.33.872,5.515,5.515,0,0,0,3.6,1.285A5.514,5.514,0,0,0-1372.947-68.792Z"
            transform="translate(1424.2 119.509)" />
        <g transform="translate(54 37)">
            <path data-name="Path 2522" d="M0,0H24V24H0Z" fill="none" />
            <path class="fill-lakehouse" data-name="Path 2523"
                d="M19,3H18V1H16V3H8V1H6V3H5A2,2,0,0,0,3,5V19a2,2,0,0,0,2,2H19a2.006,2.006,0,0,0,2-2V5A2.006,2.006,0,0,0,19,3Zm0,16H5V9H19ZM19,7H5V5H19Z" />
            <rect class="fill-lakehouse" data-name="Rectangle 66" width="5" height="5" transform="translate(7 11)" />
        </g>
    </g>
</svg>