<?xml version="1.0" encoding="utf-8"?>
<svg version="1.1" xmlns="http://www.w3.org/2000/svg" viewBox="0 0 28 28">
    <style type="text/css">
        .fill-registration {
            fill: #00338d;
        }
    </style>
    <path transform="translate(-1620.636 -1865.069)" class="fill-registration"
        d="M1642.38,1887.39c0,0.83-0.67,1.5-1.5,1.5h-15.09 c-0.83,0-1.5-0.67-1.5-1.5v-15.09c0-0.83,0.67-1.5,1.5-1.5h11.69l2.4-2.4h-14.09c-2.15,0-3.9,1.75-3.9,3.9v15.09 c0,2.15,1.75,3.9,3.9,3.9h15.09c2.15,0,3.9-1.75,3.9-3.9v-11.99l-2.4,2.4L1642.38,1887.39z M1642.27,1868.56l-10.64,10.64l-1,3.9 c-0.06,0.21,0.07,0.43,0.28,0.49c0.07,0.02,0.14,0.02,0.2,0l3.9-1l10.64-10.64L1642.27,1868.56z M1646.68,1867.55 c-0.94-0.94-2.46-0.94-3.39,0c0,0,0,0,0,0l-0.09,0.09l3.4,3.4l0.09-0.09C1647.62,1870.01,1647.62,1868.49,1646.68,1867.55 C1646.68,1867.56,1646.68,1867.55,1646.68,1867.55z" />
</svg>