<svg xmlns="http://www.w3.org/2000/svg" width="17.5" height="17.5" viewBox="0 0 17.5 17.5">
    <style>
        .fill-info {
            fill: #00338d;
        }
    </style>
    <path class="fill-info"
        d="M12.159,17.125h1.313v-5.25H12.159Zm.591-6.869a.719.719,0,0,0,.514-.2.663.663,0,0,0,.208-.5.735.735,0,0,0-.208-.525.713.713,0,0,0-1.028,0,.735.735,0,0,0-.208.525.663.663,0,0,0,.208.5.719.719,0,0,0,.514.2Zm0,11.244a8.466,8.466,0,0,1-3.391-.689,8.816,8.816,0,0,1-4.67-4.67,8.74,8.74,0,0,1,0-6.8A8.745,8.745,0,0,1,6.57,6.559a8.97,8.97,0,0,1,2.789-1.87,8.74,8.74,0,0,1,6.8,0,8.736,8.736,0,0,1,4.648,4.648,8.74,8.74,0,0,1,0,6.8,8.97,8.97,0,0,1-1.87,2.789,8.745,8.745,0,0,1-2.778,1.881A8.52,8.52,0,0,1,12.75,21.5Zm.022-1.312a7.131,7.131,0,0,0,5.25-2.177,7.211,7.211,0,0,0,2.166-5.283,7.149,7.149,0,0,0-2.166-5.25A7.175,7.175,0,0,0,12.75,5.313,7.186,7.186,0,0,0,7.489,7.478,7.157,7.157,0,0,0,5.313,12.75a7.167,7.167,0,0,0,2.177,5.261A7.193,7.193,0,0,0,12.772,20.188ZM12.75,12.75Z"
        transform="translate(-4 -4)" />
</svg>