<svg xmlns="http://www.w3.org/2000/svg" width="20" height="20" viewBox="0 0 20 20">
  <style type="text/css">
        .fill-faq {
            fill: #00338d;
        }
    </style>
    <path class="fill-faq" data-name="quiz_FILL0_wght400_GRAD0_opsz48 (1)" d="M15.575,17.5a1.024,1.024,0,1,0-.725-.3A.988.988,0,0,0,15.575,17.5Zm-.625-3.15h1.175a3.222,3.222,0,0,1,.212-1.075,3.913,3.913,0,0,1,.813-.975,4.994,4.994,0,0,0,.938-1.137,2.363,2.363,0,0,0,.263-1.137,2.432,2.432,0,0,0-.788-1.875A2.925,2.925,0,0,0,15.5,7.425a2.917,2.917,0,0,0-2.8,1.95l1.125.475a2.418,2.418,0,0,1,.687-.95,1.547,1.547,0,0,1,.988-.325A1.722,1.722,0,0,1,16.712,9a1.4,1.4,0,0,1,.462,1.075,1.668,1.668,0,0,1-.225.875,3,3,0,0,1-.8.8,4.26,4.26,0,0,0-1,1.163,3.731,3.731,0,0,0-.2,1.437ZM8.5,21A1.538,1.538,0,0,1,7,19.5V5.5a1.439,1.439,0,0,1,.45-1.05A1.439,1.439,0,0,1,8.5,4h14a1.439,1.439,0,0,1,1.05.45A1.439,1.439,0,0,1,24,5.5v14A1.538,1.538,0,0,1,22.5,21Zm0-1.5h14V5.5H8.5ZM5.5,24a1.439,1.439,0,0,1-1.05-.45A1.439,1.439,0,0,1,4,22.5V7H5.5V22.5H21V24Zm3-18.5v0Z" transform="translate(-4 -4)" />
</svg>
