<?xml version="1.0" encoding="utf-8"?>
<svg xmlns="http://www.w3.org/2000/svg" viewBox="0 0 28 31.111">
    <style type="text/css">
        .fill-show-assigned-classes {
            fill: #00338d;
        }
    </style>
    <path class="fill-show-assigned-classes" d="M20,28.889a14.415,14.415,0,0,0-4.9.836,14.246,14.246,0,0,0-4.433,2.625v.428H29.333v-.194a14.589,14.589,0,0,0-4.375-2.722A13.243,13.243,0,0,0,20,28.889ZM8.333,31.222A16.064,16.064,0,0,1,13.6,27.781a17.266,17.266,0,0,1,12.775,0,16.565,16.565,0,0,1,5.289,3.442V8.667H8.333ZM20,22.9a5.245,5.245,0,0,1-5.289-5.289A5.245,5.245,0,0,1,20,12.322a5.245,5.245,0,0,1,5.289,5.289A5.245,5.245,0,0,1,20,22.9Zm0-2.333a2.97,2.97,0,0,0,2.1-5.056,2.97,2.97,0,0,0-4.2,4.2,2.855,2.855,0,0,0,2.1.856ZM8.333,35.111a2.239,2.239,0,0,1-1.633-.7A2.239,2.239,0,0,1,6,32.778V8.667a2.239,2.239,0,0,1,.7-1.633,2.239,2.239,0,0,1,1.633-.7h2.528V4h2.528V6.333H26.611V4h2.528V6.333h2.528a2.239,2.239,0,0,1,1.633.7A2.239,2.239,0,0,1,34,8.667V32.778a2.392,2.392,0,0,1-2.333,2.333ZM20,17.611Zm0,15.167h0Z" transform="translate(-6 -4)"/>
</svg>