<svg xmlns="http://www.w3.org/2000/svg" width="20" height="20" viewBox="0 0 16.744 20">
  <style>
        .fill-advisory-learning {
            fill: #00338d;
        }
    </style>
    <path class = "fill-advisory-learning" data-name="local_library_FILL0_wght400_GRAD0_opsz48 (1)" d="M14.372,22a13.555,13.555,0,0,0-3.965-2.465A11.768,11.768,0,0,0,6,18.674V8.7a10.2,10.2,0,0,1,4.337,1,15.089,15.089,0,0,1,4.035,2.791A15.089,15.089,0,0,1,18.407,9.7a10.2,10.2,0,0,1,4.337-1v9.977a11.768,11.768,0,0,0-4.407.86A13.555,13.555,0,0,0,14.372,22Zm0-1.791a16.31,16.31,0,0,1,3.407-1.9,13.046,13.046,0,0,1,3.57-.9V10.209a9.929,9.929,0,0,0-3.337,1.267,19.554,19.554,0,0,0-3.64,2.8,22.253,22.253,0,0,0-3.721-2.86A9.128,9.128,0,0,0,7.4,10.209v7.209a13.046,13.046,0,0,1,3.57.9A16.31,16.31,0,0,1,14.372,20.209Zm.07-11.047A3.534,3.534,0,0,1,10.86,5.581,3.534,3.534,0,0,1,14.442,2a3.534,3.534,0,0,1,3.581,3.581,3.534,3.534,0,0,1-3.581,3.581Zm0-1.4a2.184,2.184,0,0,0,2.186-2.186A2.187,2.187,0,0,0,12.9,4.035a2.107,2.107,0,0,0-.64,1.547,2.184,2.184,0,0,0,2.186,2.186ZM14.419,5.535ZM14.372,15.209Z" transform="translate(-6 -2)" />
</svg>
