<?xml version="1.0" encoding="utf-8"?>
<svg xmlns="http://www.w3.org/2000/svg" viewBox="0 0 30 30">
    >
    <style type="text/css">
        .fill-pre-reqs {
            fill: #00338d;
        }
    </style>
    <path class="fill-pre-reqs"
        d="M12.792,28.167a1.427,1.427,0,0,0,1.375-1.375,1.362,1.362,0,0,0-.417-1,1.317,1.317,0,0,0-.958-.417,1.424,1.424,0,0,0-1.417,1.417,1.317,1.317,0,0,0,.417.958A1.362,1.362,0,0,0,12.792,28.167Zm0-6.792a1.351,1.351,0,0,0,.958-.4,1.358,1.358,0,0,0,0-1.958,1.351,1.351,0,0,0-.958-.4,1.4,1.4,0,0,0-1,.4,1.358,1.358,0,0,0,0,1.958A1.4,1.4,0,0,0,12.792,21.375Zm0-6.75a1.317,1.317,0,0,0,.958-.417,1.362,1.362,0,0,0,.417-1,1.427,1.427,0,0,0-1.375-1.375,1.362,1.362,0,0,0-1,.417,1.317,1.317,0,0,0-.417.958,1.424,1.424,0,0,0,1.417,1.417Zm5.333,13.542H28.208V25.375H18.125Zm0-6.792H28.208v-2.75H18.125Zm0-6.75H28.208V11.833H18.125ZM7.792,35a2.683,2.683,0,0,1-1.959-.833A2.683,2.683,0,0,1,5,32.208V7.792a2.683,2.683,0,0,1,.833-1.959A2.683,2.683,0,0,1,7.792,5H32.208a2.683,2.683,0,0,1,1.959.833A2.683,2.683,0,0,1,35,7.792V32.208A2.846,2.846,0,0,1,32.208,35Zm0-2.792H32.208V7.792H7.792Zm0-24.416v0Z"
        transform="translate(-5 -5)" />
</svg>