<?xml version="1.0" encoding="utf-8"?>
<svg xmlns="http://www.w3.org/2000/svg" viewBox="0 0 28 35">
    <style type="text/css">
        .fill-learners-report {
            fill: #00338d;
        }
    </style>
    <path class="fill-learners-report" d="M22,25a3.5,3.5,0,0,0,2.472-5.972,3.5,3.5,0,1,0-4.944,4.944A3.37,3.37,0,0,0,22,25Zm-7,7H29V30.994a3.5,3.5,0,0,0-2.144-3.237,13.236,13.236,0,0,0-2.341-.744,12.185,12.185,0,0,0-5.031,0,13.236,13.236,0,0,0-2.341.744A3.5,3.5,0,0,0,15,30.994Zm18.375,7H10.625A2.691,2.691,0,0,1,8,36.375V6.625a2.518,2.518,0,0,1,.787-1.838A2.518,2.518,0,0,1,10.625,4H25.544L36,14.456V36.375A2.691,2.691,0,0,1,33.375,39Zm0-2.625V15.637L24.363,6.625H10.625v29.75Zm-22.75,0v0Z" transform="translate(-8 -4)"/>
</svg>