<?xml version="1.0" encoding="utf-8"?>
<svg xmlns="http://www.w3.org/2000/svg" viewBox="0 0 28 19.759">
    <style type="text/css">
        .fill-add-learners {
            fill: #00338d;
        }
    </style>
    <path class="fill-add-learners" d="M23.955,21.073V16.936H19.818V15.027h4.136V10.891h1.909v4.136H30v1.909H25.864v4.136ZM12.182,18.5a4.577,4.577,0,0,1-4.773-4.773A4.577,4.577,0,0,1,12.182,8.95a4.577,4.577,0,0,1,4.773,4.773A4.577,4.577,0,0,1,12.182,18.5ZM2,28.709V25.718a3.785,3.785,0,0,1,.557-2.02,3.371,3.371,0,0,1,1.607-1.352,24.384,24.384,0,0,1,4.248-1.48,16.715,16.715,0,0,1,3.77-.43,16.507,16.507,0,0,1,3.755.43,24.574,24.574,0,0,1,4.232,1.48,3.687,3.687,0,0,1,1.623,1.368,3.627,3.627,0,0,1,.573,2v2.991ZM3.909,26.8H20.455V25.718a1.812,1.812,0,0,0-.286-.97,1.76,1.76,0,0,0-.764-.684,18.8,18.8,0,0,0-3.818-1.384,16.256,16.256,0,0,0-3.4-.334,16.485,16.485,0,0,0-3.42.334,18.669,18.669,0,0,0-3.834,1.384,1.666,1.666,0,0,0-.748.684,1.89,1.89,0,0,0-.27.97Zm8.273-10.214a2.775,2.775,0,0,0,2.864-2.864,2.775,2.775,0,0,0-2.864-2.864,2.775,2.775,0,0,0-2.864,2.864,2.775,2.775,0,0,0,2.864,2.864ZM12.182,13.723ZM12.182,26.8Z" transform="translate(-2 -8.95)"/>
</svg>