<?xml version="1.0" encoding="utf-8"?>
<svg version="1.1" xmlns="http://www.w3.org/2000/svg" xmlns:xlink="http://www.w3.org/1999/xlink" viewBox="0 -2 40 40"
    xml:space="preserve">
    <style type="text/css">
        .st0 {
            fill: #444444;
        }

        .st1 {
            fill: #333333;
        }

        .st2 {
            fill: #FFFFFF;
            stroke-width: 2;
            stroke-linecap: round;
            stroke-linejoin: round;
            stroke-miterlimit: 10;
        }
    </style>
    <path class="st0" d="M14.29,10.28l4.84,6.08c0.55,0.55,1.39,0.59,1.88,0.1c0.49-0.49,0.45-1.33-0.1-1.88l-6.08-4.84
	c-0.16-0.16-0.42-0.18-0.57-0.03c-0.04,0.04-0.07,0.09-0.09,0.14C14.13,10,14.17,10.16,14.29,10.28" />
    <path class="st0" d="M27.71,7.41l-8.05,6.81c-0.74,0.74-0.95,1.74-0.45,2.24c0.49,0.49,1.49,0.29,2.24-0.45l6.81-8.05
	c0.22-0.22,0.29-0.53,0.14-0.67c-0.04-0.04-0.09-0.07-0.15-0.08C28.07,7.17,27.87,7.25,27.71,7.41" />
    <g>
        <path class="st1"
            d="M22.36,30.95c0-0.01,0-0.02,0-0.03c0,0.01-0.01,0.02-0.01,0.03C22.35,30.95,22.36,30.95,22.36,30.95z" />
        <path class="st1" d="M20.12,0C11.52,0,4.56,6.97,4.56,15.56c0,6.96,4.58,12.86,10.88,14.84v-2.19c0-0.1,0.03-0.2,0.05-0.29
		c-4.99-1.9-8.53-6.71-8.53-12.36c0-7.31,5.93-13.24,13.24-13.24c7.31,0,13.24,5.93,13.24,13.24c0,0.21-0.01,0.43-0.02,0.64
		c0.06,0,0.11-0.01,0.17-0.01c0.72,0,1.41,0.11,2.05,0.33c0.02-0.32,0.03-0.64,0.03-0.97C35.67,6.97,28.71,0,20.12,0z" />
    </g>
    <g>
        <path class="st2" d="M10.55,15.39c-0.52,0-0.98,0-1.37,0" />
        <line class="st2" x1="20.08" y1="5.46" x2="20.08" y2="4.03" />
    </g>
    <path class="st0" d="M36.23,37.86v-6.21c0-1.13,0.01-2.28-0.01-3.42c-0.02-0.77-0.44-1.23-1.2-1.34c-0.21-0.04-0.27-0.11-0.27-0.32
	c0-1.1,0.01-2.21-0.05-3.31c-0.05-1.09-0.43-2.09-1-3c-1.16-1.83-2.79-3.01-4.92-3.5c-0.22-0.05-0.45-0.09-0.68-0.12
	c-0.22-0.02-0.45-0.04-0.68-0.1H27c-0.6,0.1-1.15,0.15-1.68,0.29c-2.82,0.82-4.69,2.62-5.48,5.47c-0.27,0.98-0.21,1.99-0.21,2.99
	v1.55c-0.15,0.02-0.27,0.05-0.39,0.07c-0.65,0.13-1.06,0.63-1.06,1.29v6.96c0,1.06,0.01,2.12,0,3.19c-0.01,0.93,0.21,1.32,0.99,1.65
	h16.1c0.46-0.18,0.79-0.49,0.9-1C36.25,38.63,36.23,38.24,36.23,37.86z M28.57,33.96c-0.26,0.18-0.33,0.38-0.33,0.66
	c0.02,0.66,0.02,1.32,0.01,1.98c-0.01,0.55-0.28,0.93-0.73,1.07c-0.41,0.15-0.83,0.05-1.12-0.31c-0.11-0.16-0.21-0.35-0.23-0.55
	c-0.04-0.41-0.01-0.85-0.01-1.28h-0.02v-0.34c0.02-0.59-0.05-1.06-0.6-1.51c-0.84-0.7-0.94-1.87-0.43-2.79
	c0.49-0.88,1.55-1.42,2.54-1.2c0.98,0.22,1.65,0.83,1.87,1.82C29.74,32.51,29.4,33.35,28.57,33.96z M31.89,26.54
	c0,0.26-0.09,0.34-0.33,0.34c-1.46-0.01-2.92,0-4.38,0h-4.31c-0.37,0-0.39-0.01-0.39-0.38c0-0.89-0.04-1.78,0.01-2.67
	c0.09-1.48,0.79-2.62,1.96-3.49c2.21-1.64,5.42-0.95,6.79,1.43c0.43,0.74,0.66,1.53,0.65,2.38C31.88,24.95,31.88,25.75,31.89,26.54z
	" />
</svg>