<?xml version="1.0" encoding="utf-8"?>
<svg version="1.1" xmlns="http://www.w3.org/2000/svg" viewBox="0 0 825.21 817.82">
    <style>
        .fill-lakehouse {
            fill: #00338d;
        }
    </style>
    <path class="fill-lakehouse"
        d="M-1403.16,239.21v-58l413-284,409,283v58l-410-284Zm767.74,220.21c16.14-11.73,27.81-20.21,54-20.21v-50c-42.5,0-65.21,16.51-83.45,29.78-16.14,11.73-27.81,20.22-54,20.22s-37.91-8.49-54-20.22c-18.24-13.27-41-29.78-83.46-29.78s-65.21,16.51-83.45,29.78c-16.14,11.74-27.8,20.22-54,20.22s-37.91-8.48-54.05-20.22c-18.24-13.27-40.95-29.78-83.45-29.78s-65.21,16.51-83.46,29.78c-16.14,11.74-27.8,20.22-54,20.22s-37.91-8.48-54-20.22c-18.25-13.27-40.95-29.78-83.46-29.78v50c26.25,0,37.91,8.48,54,20.21,18.24,13.27,40.94,29.79,83.45,29.79s65.21-16.52,83.45-29.79c16.14-11.73,27.8-20.21,54.05-20.21s37.9,8.48,54,20.21c18.25,13.27,40.95,29.79,83.46,29.79s65.21-16.52,83.45-29.79c16.14-11.73,27.8-20.21,54-20.21s37.91,8.48,54,20.21c18.25,13.27,41,29.79,83.46,29.79S-653.66,472.69-635.42,459.42Zm0,112.92c16.14-11.74,27.81-20.22,54-20.22v-50c-42.5,0-65.21,16.51-83.45,29.78-16.14,11.74-27.81,20.22-54,20.22s-37.91-8.48-54-20.22c-18.24-13.27-41-29.78-83.46-29.78s-65.21,16.51-83.45,29.78c-16.14,11.74-27.8,20.22-54,20.22s-37.91-8.48-54.05-20.22c-18.24-13.27-40.95-29.78-83.45-29.78s-65.21,16.51-83.46,29.78c-16.14,11.74-27.8,20.22-54,20.22s-37.91-8.48-54-20.22c-18.25-13.27-40.95-29.78-83.46-29.78v50c26.25,0,37.91,8.48,54,20.22,18.24,13.27,40.94,29.78,83.45,29.78s65.21-16.51,83.45-29.78c16.14-11.74,27.8-20.22,54.05-20.22s37.9,8.48,54,20.22c18.25,13.27,40.95,29.78,83.46,29.78s65.21-16.51,83.45-29.78c16.14-11.74,27.8-20.22,54-20.22s37.91,8.48,54,20.22c18.25,13.27,41,29.78,83.46,29.78S-653.66,585.61-635.42,572.34Zm0,112.91c16.14-11.74,27.81-20.22,54-20.22V615c-42.5,0-65.21,16.51-83.45,29.78C-681,656.55-692.63,665-718.87,665s-37.91-8.48-54-20.22c-18.24-13.27-41-29.78-83.46-29.78s-65.21,16.51-83.45,29.78c-16.14,11.74-27.8,20.22-54,20.22s-37.91-8.48-54.05-20.22c-18.24-13.27-40.95-29.78-83.45-29.78s-65.21,16.51-83.46,29.78c-16.14,11.74-27.8,20.22-54,20.22s-37.91-8.48-54-20.22c-18.25-13.27-40.95-29.78-83.46-29.78v50c26.25,0,37.91,8.48,54,20.22,18.24,13.27,40.94,29.78,83.45,29.78s65.21-16.51,83.45-29.78c16.14-11.74,27.8-20.22,54.05-20.22s37.9,8.48,54,20.22c18.25,13.27,40.95,29.78,83.46,29.78s65.21-16.51,83.45-29.78c16.14-11.74,27.8-20.22,54-20.22s37.91,8.48,54,20.22c18.25,13.27,41,29.78,83.46,29.78S-653.66,698.52-635.42,685.25Z"
        transform="translate(1406.37 102.79)" />
</svg>