<?xml version="1.0" encoding="utf-8"?>
<svg xmlns="http://www.w3.org/2000/svg" viewBox="0 0 28 26.634">
    <style type="text/css">
        .fill-learner-class-mapping {
            fill: #00338d;
        }
    </style>
    <path class="fill-learner-class-mapping" d="M16.961,18.244A5.13,5.13,0,0,1,11.8,13.122,5.1,5.1,0,0,1,16.927,8a5.072,5.072,0,0,1,5.122,5.088,5,5,0,0,1-1.485,3.654A4.877,4.877,0,0,1,16.961,18.244ZM16.927,16.2a2.942,2.942,0,0,0,2.185-.9,3.113,3.113,0,0,0,0-4.354,2.93,2.93,0,0,0-2.151-.888,3.027,3.027,0,0,0-2.2.888,2.9,2.9,0,0,0-.9,2.151,3,3,0,0,0,.9,2.2A2.958,2.958,0,0,0,16.927,16.2ZM32.566,34.634l-4.78-4.78a4.8,4.8,0,0,1-1.622.8,6.7,6.7,0,0,1-1.724.222,5.771,5.771,0,0,1-5.8-5.8,5.771,5.771,0,0,1,5.8-5.8,5.771,5.771,0,0,1,5.8,5.8,6.7,6.7,0,0,1-.222,1.724,4.8,4.8,0,0,1-.8,1.622L34,33.2Zm-8.127-5.8a3.675,3.675,0,1,0-2.68-1.076A3.638,3.638,0,0,0,24.439,28.829ZM6,29.854v-3.21a3.763,3.763,0,0,1,.6-2.151,4.507,4.507,0,0,1,1.724-1.468A24.068,24.068,0,0,1,12.5,21.539a15.97,15.97,0,0,1,5.241-.529,8.644,8.644,0,0,0-.512.973,6.774,6.774,0,0,0-.376,1.041,14.024,14.024,0,0,0-4.644.632,25.017,25.017,0,0,0-3.073,1.212,2.309,2.309,0,0,0-.785.734,1.835,1.835,0,0,0-.307,1.041V27.8h8.81q.376.58.683,1.076a10.763,10.763,0,0,0,.683.973ZM16.927,13.122ZM16.859,27.8Z" transform="translate(-6 -8)"/>
</svg>