<?xml version="1.0" encoding="utf-8"?>
<svg version="1.1" xmlns="http://www.w3.org/2000/svg" viewBox="0 0 40 40">
    <style>
        .fill-user-bkg {
            fill: #00338d;
        }

        .fill-user-fg {
            fill: #00338d;
        }

        .fill-user {
            fill: #FFFFFF;
        }
    </style>
    <rect class="fill-user-bkg" x="0" y="0" width="40" height="40" />
    <rect class="fill-user" x="7.5" y="6.5" width="25" height="25" />
    <path class="fill-user-fg"
        d="M20,1A19,19,0,1,0,39,20,19,19,0,0,0,20,1ZM31.08,29.06h-.03l-22.13.02V26.55c0-.02-.03-.6.84-1.4.8-.73,2.56-1.8,6.36-2.73.05-.01,1.09-.16.94-1.56a8.591,8.591,0,0,1-1.52-2.69,2.791,2.791,0,0,1-1.08-3.57A6.063,6.063,0,0,1,16,8.02a4.919,4.919,0,0,1,6.14-.01c.04,0,.22.01,1.01.05h0a2.412,2.412,0,0,1,1.69.89c.9,1.07,1.12,2.9.66,5.44a2.738,2.738,0,0,1-1.03,3.69,12.023,12.023,0,0,1-1.53,2.85,1.03,1.03,0,0,0-.14.79.98.98,0,0,0,.69.55c.15.03,6.65,1.26,7.6,4.17v2.62Z" />
</svg>